Coordinates
version=1
nRows=32
nColumns=22
inDegrees=yes

Units are S.I. units (second, meters, Newtons, ...)
If the header above contains a line with 'inDegrees', this indicates whether rotational values are in degrees (yes) or radians (no).

endheader
time	pelvis_tilt	pelvis_list	pelvis_rotation	pelvis_tx	pelvis_ty	pelvis_tz	hip_flexion_r	hip_adduction_r	hip_rotation_r	knee_angle_r	ankle_angle_r	subtalar_angle_r	hip_flexion_l	hip_adduction_l	hip_rotation_l	knee_angle_l	ankle_angle_l	subtalar_angle_l	lumbar_extension	lumbar_bending	lumbar_rotation
      3.65000000	     -1.09011204	     -1.38032720	     -7.02769862	      0.28977429	      0.93744578	     -0.38836800	     31.07305401	      1.40663043	    -15.72453529	    -34.86139168	      7.92863132	     -5.85838215	      2.38202961	     -7.45203524	     -6.16866356	    -21.99838725	     16.94185005	      2.87264658	    -10.20822730	      0.22809234	     -6.97655574
      3.66000000	     -1.13802957	     -1.30694298	     -7.66474332	      0.29690550	      0.93590998	     -0.38620461	     30.82491342	      1.35149938	    -16.55527202	    -31.83203225	      8.04434478	     -5.69134438	      1.78651911	     -7.43237370	     -6.80655303	    -22.01207984	     17.38060051	      2.91065571	    -10.17483246	      0.24334735	     -7.12291993
      3.67000000	     -1.18218009	     -1.21948322	     -8.28760338	      0.30410924	      0.93428578	     -0.38386921	     30.56053325	      1.32716220	    -17.39062455	    -28.89274172	      8.23648470	     -5.49900893	      1.17603606	     -7.39798608	     -7.42716478	    -22.01104443	     17.80120348	      3.00305822	    -10.13117555	      0.24690050	     -7.25762956
      3.68000000	     -1.23217357	     -1.12422859	     -8.89323430	      0.31137290	      0.93257243	     -0.38136623	     30.30550326	      1.33579730	    -18.21471257	    -26.09531889	      8.46933622	     -5.28474822	      0.56745907	     -7.35574237	     -8.01269101	    -22.00631452	     18.20970370	      3.12879775	    -10.06992832	      0.25086991	     -7.38697197
      3.69000000	     -1.25868548	     -1.01742853	     -9.48674521	      0.31872236	      0.93084197	     -0.37867278	     30.03956506	      1.36386710	    -19.01664825	    -23.49360117	      8.77370196	     -5.00500202	     -0.08743956	     -7.29238386	     -8.54681544	    -21.96883026	     18.57479709	      3.36787236	    -10.02321180	      0.24219919	     -7.50808799
      3.70000000	     -1.29906340	     -0.92756846	    -10.05950400	      0.32615785	      0.92905099	     -0.37581660	     29.81218244	      1.42352048	    -19.84898515	    -21.14602841	      9.04294198	     -4.77548531	     -0.73279552	     -7.24915528	     -9.04031823	    -21.93485094	     18.93058200	      3.55048702	     -9.95336321	      0.26762347	     -7.63101882
      3.71000000	     -1.31832657	     -0.84249764	    -10.61796299	      0.33371507	      0.92727713	     -0.37278817	     29.60053161	      1.48705337	    -20.71524630	    -19.11497851	      9.30990492	     -4.57782213	     -1.41790640	     -7.20392346	     -9.49554537	    -21.88404957	     19.24634295	      3.75701375	     -9.89750251	      0.30701457	     -7.75885661
      3.72000000	     -1.31423957	     -0.76924828	    -11.15651150	      0.34140031	      0.92553906	     -0.36958744	     29.40967785	      1.54774493	    -21.62791717	    -17.44945163	      9.56263746	     -4.43991781	     -2.13547560	     -7.16746794	     -9.91449955	    -21.83551994	     19.52632144	      3.96944255	     -9.86019224	      0.36809893	     -7.91008532
      3.73000000	     -1.27678363	     -0.69895928	    -11.69925154	      0.34927189	      0.92387796	     -0.36617699	     29.24244544	      1.58960493	    -22.58155247	    -16.20711268	      9.83236936	     -4.35167169	     -2.92320706	     -7.11826721	    -10.28420786	    -21.75244760	     19.71996796	      4.29338439	     -9.84356501	      0.43606900	     -8.02645399
      3.74000000	     -1.21732191	     -0.64713409	    -12.20957047	      0.35730326	      0.92228295	     -0.36260691	     29.09925762	      1.60868183	    -23.57178607	    -15.39303361	     10.08700284	     -4.38471703	     -3.72858120	     -7.08781689	    -10.60166485	    -21.69607096	     19.86464465	      4.58816312	     -9.84386056	      0.53850256	     -8.19879398
      3.75000000	     -1.12683350	     -0.60509574	    -12.73929965	      0.36552803	      0.92079918	     -0.35879947	     28.97438529	      1.60728100	    -24.53922212	    -15.02219403	     10.26691857	     -4.55180884	     -4.59570991	     -7.05321728	    -10.88030499	    -21.62519514	     19.93090817	      5.03432566	     -9.86309503	      0.65275642	     -8.30859812
      3.76000000	     -1.02427246	     -0.57835181	    -13.23509596	      0.37394955	      0.91940143	     -0.35484164	     28.86947734	      1.56629958	    -25.47646202	    -15.06937259	     10.43820716	     -4.85112996	     -5.46952372	     -7.03274402	    -11.08051256	    -21.58185146	     19.91115806	      5.47064359	     -9.88372316	      0.80628865	     -8.48233369
      3.77000000	     -0.90922580	     -0.56692788	    -13.73001869	      0.38257163	      0.91812727	     -0.35064921	     28.75145476	      1.51298656	    -26.34412037	    -15.44711150	     10.51080229	     -5.31658955	     -6.35832532	     -7.02651536	    -11.23646256	    -21.56675891	     19.81054787	      6.01094039	     -9.90222279	      0.98426464	     -8.63009999
      3.78000000	     -0.81055692	     -0.59145876	    -14.23526251	      0.39132004	      0.91694811	     -0.34621234	     28.65002422	      1.48354449	    -27.06601199	    -16.12126246	     10.41016502	     -6.01742068	     -7.20019719	     -7.07632960	    -11.38941677	    -21.64738622	     19.64460855	      6.68025999	     -9.90374789	      1.21938520	     -8.75552316
      3.79000000	     -0.74084999	     -0.63834043	    -14.71757419	      0.40025658	      0.91590056	     -0.34156795	     28.54539344	      1.46499626	    -27.68920335	    -16.98316289	     10.24500515	     -6.71540052	     -8.00127989	     -7.15460883	    -11.42768990	    -21.76786863	     19.34236111	      7.34051708	     -9.85945013	      1.50582079	     -8.90204191
      3.80000000	     -0.71217071	     -0.72215303	    -15.20340392	      0.40926778	      0.91501230	     -0.33665149	     28.44319580	      1.50808224	    -28.15821477	    -17.94637795	      9.93810234	     -7.42632488	     -8.71040377	     -7.29590451	    -11.41439475	    -22.00677801	     18.90076928	      8.06965602	     -9.77658654	      1.85237616	     -9.02844668
      3.81000000	     -0.75326727	     -0.84536441	    -15.71076275	      0.41828547	      0.91428794	     -0.33141394	     28.36383899	      1.65549161	    -28.42941203	    -18.91814111	      9.47120045	     -8.09227588	     -9.28091380	     -7.51543363	    -11.36521851	    -22.39473675	     18.29845067	      8.85466149	     -9.63060954	      2.26326900	     -9.12417390
      3.82000000	     -0.87690546	     -1.00050888	    -16.25838886	      0.42725592	      0.91374098	     -0.32583645	     28.32922834	      1.92417134	    -28.47023102	    -19.85182218	      8.88739766	     -8.64857360	     -9.68382362	     -7.80858622	    -11.28719469	    -22.95618686	     17.53320328	      9.66578289	     -9.41244466	      2.73005987	     -9.17164301
      3.83000000	     -1.07721189	     -1.16673493	    -16.86073420	      0.43610637	      0.91340069	     -0.31991300	     28.34045199	      2.31289257	    -28.25406778	    -20.70783195	      8.21172963	     -9.01533268	     -9.89697056	     -8.14773111	    -11.15130450	    -23.72127062	     16.54691825	     10.43304335	     -9.13271935	      3.22449960	     -9.16176413
      3.84000000	     -1.32551673	     -1.31638302	    -17.51125812	      0.44484626	      0.91328000	     -0.31363688	     28.38226381	      2.77991494	    -27.83988143	    -21.49979070	      7.59670476	     -9.37992331	     -9.91893824	     -8.51233450	    -10.97954960	    -24.71982593	     15.31107284	     11.33842451	     -8.81001833	      3.70140363	     -9.14077826
      3.85000000	     -1.61431665	     -1.44207093	    -18.23606146	      0.45340963	      0.91338588	     -0.30701915	     28.43856463	      3.33498094	    -27.20731138	    -22.19779569	      6.95852275	     -9.58080330	     -9.74566825	     -8.87442280	    -10.73008138	    -25.96001803	     13.80591782	     12.13932012	     -8.45957800	      4.14777201	     -9.05528593
      3.86000000	     -1.91968543	     -1.50836070	    -19.01840946	      0.46183201	      0.91368665	     -0.30012547	     28.49131995	      3.91017364	    -26.46767468	    -22.81664303	      6.41475716	     -9.80601765	     -9.37319521	     -9.19269163	    -10.37300414	    -27.45251951	     12.02239606	     13.01638591	     -8.08753393	      4.52253435	     -8.92317766
      3.87000000	     -2.20187250	     -1.51597049	    -19.86204443	      0.47008054	      0.91419051	     -0.29298370	     28.48382738	      4.49757761	    -25.62202404	    -23.33262167	      5.95803799	     -9.99193011	     -8.82283142	     -9.46035595	     -9.95817353	    -29.20913947	      9.96388386	     13.78078488	     -7.74026816	      4.81294024	     -8.77953216
      3.88000000	     -2.45435680	     -1.45519824	    -20.74529391	      0.47818185	      0.91484815	     -0.28565947	     28.40360874	      5.05614701	    -24.78360117	    -23.74671339	      5.63853444	    -10.24805503	     -8.09294078	     -9.65283857	     -9.42264677	    -31.20845861	      7.66985421	     14.51777320	     -7.41217511	      5.00658787	     -8.59981122
      3.89000000	     -2.65239147	     -1.34892971	    -21.66668477	      0.48611572	      0.91565151	     -0.27820611	     28.21086546	      5.59390800	    -23.94957396	    -24.04647095	      5.42824306	    -10.52510545	     -7.20952722	     -9.78353276	     -8.81810392	    -33.44086719	      5.22422373	     15.14272982	     -7.14016270	      5.12265720	     -8.39288328
      3.90000000	     -2.80583142	     -1.20751432	    -22.61366037	      0.49385458	      0.91652982	     -0.27064535	     27.90492695	      6.11416740	    -23.15123590	    -24.21701408	      5.33659226	    -10.84689059	     -6.15869151	     -9.86999525	     -8.17217645	    -35.89802116	      2.75029089	     15.64257968	     -6.91537802	      5.16707895	     -8.15015826
      3.91000000	     -2.91195591	     -1.06358767	    -23.59350598	      0.50137673	      0.91745568	     -0.26301013	     27.48045146	      6.63968413	    -22.37670402	    -24.27426701	      5.32602868	    -11.15240921	     -4.97079699	     -9.93855193	     -7.53326406	    -38.54739704	      0.38068890	     15.98660843	     -6.75680566	      5.17590464	     -7.85640973
      3.92000000	     -2.98173106	     -0.93235164	    -24.60258829	      0.50865445	      0.91837789	     -0.25531946	     26.95055533	      7.17827910	    -21.63354064	    -24.23164911	      5.40065943	    -11.44339344	     -3.65341485	    -10.01098614	     -6.93922544	    -41.35640884	     -1.76041212	     16.12808560	     -6.65869386	      5.16304821	     -7.51045485
      3.93000000	     -3.02177781	     -0.82709409	    -25.65297441	      0.51566480	      0.91927907	     -0.24758088	     26.32656971	      7.74269180	    -20.89478683	    -24.10643977	      5.52940924	    -11.67009268	     -2.23492444	    -10.09818442	     -6.42038183	    -44.27070669	     -3.57281758	     16.03429903	     -6.62026410	      5.14237167	     -7.09569151
      3.94000000	     -3.03328982	     -0.74996876	    -26.74289039	      0.52240672	      0.92015100	     -0.23980099	     25.62229686	      8.32509025	    -20.15769614	    -23.92687727	      5.72869350	    -11.84058274	     -0.74379477	    -10.20075162	     -5.98424281	    -47.22922613	     -5.00144176	     15.65554884	     -6.63736748	      5.11182785	     -6.62620682
      3.95000000	     -3.02975024	     -0.70105686	    -27.88670688	      0.52888806	      0.92100137	     -0.23196427	     24.85173393	      8.93452988	    -19.38500770	    -23.69694791	      5.96616325	    -11.92536069	      0.79503077	    -10.32067953	     -5.63426834	    -50.16665233	     -5.97079043	     15.04557659	     -6.69176841	      5.07600073	     -6.07455267
      3.96000000	     -3.01445812	     -0.67452022	    -29.08702829	      0.53511178	      0.92183836	     -0.22405185	     24.02894657	      9.56598982	    -18.54675782	    -23.43565683	      6.23200248	    -11.93383682	      2.36139072	    -10.46478044	     -5.38043385	    -53.03066452	     -6.43719624	     14.29362638	     -6.77048109	      5.02838874	     -5.46483664
